<?xml version="1.0" encoding="UTF-8"?>
<svg xmlns="http://www.w3.org/2000/svg" xmlns:xlink="http://www.w3.org/1999/xlink" viewBox="0 0 442.72 337.04">
  <defs>
    <style>
      .cls-1, .cls-2, .cls-3, .cls-4, .cls-5, .cls-6, .cls-7, .cls-8, .cls-9, .cls-10, .cls-11 {
        mix-blend-mode: multiply;
      }

      .cls-1, .cls-12, .cls-10 {
        fill: #002d57;
      }

      .cls-1, .cls-5, .cls-7, .cls-9 {
        opacity: .5;
      }

      .cls-13 {
        fill: url(#Degradado_sin_nombre_64-2);
      }

      .cls-2, .cls-14 {
        fill: #384955;
      }

      .cls-3 {
        fill: url(#linear-gradient-4);
      }

      .cls-15 {
        fill: url(#linear-gradient-15);
      }

      .cls-16 {
        fill: url(#linear-gradient-14);
      }

      .cls-17 {
        isolation: isolate;
      }

      .cls-18, .cls-5 {
        fill: #39c;
      }

      .cls-19 {
        fill: url(#linear-gradient);
      }

      .cls-19, .cls-20 {
        opacity: .25;
      }

      .cls-21 {
        fill: url(#linear-gradient-11);
      }

      .cls-4 {
        fill: url(#linear-gradient-6);
      }

      .cls-22 {
        fill: url(#linear-gradient-10);
      }

      .cls-23 {
        fill: url(#linear-gradient-16);
      }

      .cls-6 {
        opacity: .3;
      }

      .cls-24 {
        fill: #f4b822;
      }

      .cls-25 {
        fill: url(#linear-gradient-5);
      }

      .cls-8, .cls-26 {
        fill: url(#linear-gradient-3);
      }

      .cls-8, .cls-10, .cls-27 {
        opacity: .4;
      }

      .cls-9 {
        fill: url(#linear-gradient-9);
      }

      .cls-28 {
        fill: url(#linear-gradient-7);
      }

      .cls-29 {
        fill: url(#Degradado_sin_nombre_64);
      }

      .cls-20 {
        fill: url(#linear-gradient-2);
      }

      .cls-27 {
        fill: #f9f9f9;
      }

      .cls-30 {
        fill: url(#linear-gradient-8);
      }

      .cls-31 {
        fill: url(#linear-gradient-12);
      }

      .cls-32 {
        fill: url(#linear-gradient-13);
      }
    </style>
    <linearGradient id="linear-gradient" x1="-2.52" y1="199.26" x2="428.38" y2="199.26" gradientTransform="translate(313.43 455.39) rotate(-155.37)" gradientUnits="userSpaceOnUse">
      <stop offset="0" stop-color="#39c" stop-opacity=".3"/>
      <stop offset="1" stop-color="#259aff" stop-opacity="0"/>
    </linearGradient>
    <linearGradient id="linear-gradient-2" x1="5.91" y1="168.52" x2="436.81" y2="168.52" gradientTransform="matrix(1,0,0,1,0,0)" xlink:href="#linear-gradient"/>
    <linearGradient id="linear-gradient-3" x1="121.45" y1="102.09" x2="230.56" y2="250.87" gradientTransform="translate(31.24 -69.95) rotate(15.73)" gradientUnits="userSpaceOnUse">
      <stop offset="0" stop-color="#f9f871"/>
      <stop offset="1" stop-color="#ea9a28"/>
    </linearGradient>
    <linearGradient id="linear-gradient-4" x1="178.9" y1="250" x2="178.9" y2="125.52" xlink:href="#linear-gradient-3"/>
    <linearGradient id="linear-gradient-5" x1="60.2" y1="113.75" x2="186.12" y2="285.45" gradientTransform="matrix(1,0,0,1,0,0)" xlink:href="#linear-gradient-3"/>
    <linearGradient id="linear-gradient-6" x1="125.5" y1="284.45" x2="125.5" y2="140.79" gradientTransform="matrix(1,0,0,1,0,0)" xlink:href="#linear-gradient-3"/>
    <linearGradient id="linear-gradient-7" x1="204.28" y1="203.13" x2="204.28" y2="155.86" gradientUnits="userSpaceOnUse">
      <stop offset="0" stop-color="#216282" stop-opacity="0"/>
      <stop offset="1" stop-color="#1d5673"/>
    </linearGradient>
    <linearGradient id="linear-gradient-8" x1="248.15" x2="248.15" xlink:href="#linear-gradient-7"/>
    <linearGradient id="linear-gradient-9" x1="226.22" y1="233.23" x2="226.22" y2="330.46" xlink:href="#linear-gradient-7"/>
    <linearGradient id="linear-gradient-10" x1="309.47" y1="247.08" x2="332.94" y2="247.08" gradientTransform="matrix(1,0,0,1,0,0)" xlink:href="#linear-gradient-3"/>
    <linearGradient id="Degradado_sin_nombre_64" data-name="Degradado sin nombre 64" x1="309.34" y1="246.86" x2="333.06" y2="246.86" gradientUnits="userSpaceOnUse">
      <stop offset="0" stop-color="#fdda42"/>
      <stop offset="1" stop-color="#e5a003"/>
    </linearGradient>
    <linearGradient id="linear-gradient-11" x1="340.83" y1="247.08" x2="369.28" y2="247.08" gradientTransform="matrix(1,0,0,1,0,0)" xlink:href="#linear-gradient-3"/>
    <linearGradient id="Degradado_sin_nombre_64-2" data-name="Degradado sin nombre 64" x1="340.71" y1="247.03" x2="369.41" y2="247.03" xlink:href="#Degradado_sin_nombre_64"/>
    <linearGradient id="linear-gradient-12" x1="329.65" y1="225.9" x2="345.74" y2="225.9" gradientTransform="matrix(1,0,0,1,0,0)" xlink:href="#linear-gradient-3"/>
    <linearGradient id="linear-gradient-13" x1="329.65" y1="225.9" x2="345.74" y2="225.9" gradientTransform="matrix(1,0,0,1,0,0)" xlink:href="#linear-gradient-3"/>
    <linearGradient id="linear-gradient-14" x1="315.47" y1="249.84" x2="334.15" y2="249.84" gradientTransform="matrix(1,0,0,1,0,0)" xlink:href="#linear-gradient-3"/>
    <linearGradient id="linear-gradient-15" x1="339.66" y1="250.17" x2="361.87" y2="250.17" gradientTransform="matrix(1,0,0,1,0,0)" xlink:href="#linear-gradient-3"/>
    <linearGradient id="linear-gradient-16" x1="337.55" y1="270.59" x2="337.55" y2="189.36" gradientTransform="matrix(1,0,0,1,0,0)" xlink:href="#linear-gradient-3"/>
  </defs>
  <g class="cls-17">
    <g id="Layer_2" data-name="Layer 2">
      <g id="OBJECTS">
        <g>
          <g>
            <path class="cls-19" d="m437.84,147.76c5.28,10.25,6.31,22.16,2.92,33.18-11.36,37-55.03,110.94-158.23,142.26-125.24,38.02-215.79-10.08-251.77-50.54C-8.88,228.08-6.87,140.53,17.88,73.08,36.51,22.33,83.8-6.98,137.2,1.43c89.58,14.11,262.34,72.07,300.64,146.33Z"/>
            <path class="cls-20" d="m23.56,300.75c-9.07-7.11-14.97-17.51-16.49-28.94-5.09-38.37,3.79-123.78,84.54-195.27C189.61-10.22,291.97-4.24,341.53,17.54c54.61,24,89.28,104.43,94.89,176.05,4.22,53.9-26.55,100.25-78.6,114.87-87.31,24.51-268.51,43.83-334.27-7.71Z"/>
          </g>
          <g>
            <g>
              <path class="cls-26" d="m207.89,191.44c.36-10.47-4.11-21.09-12.85-27.18-5.2-3.63-13.95-4.7-16.29-11.36-2.02-5.74.64-12.03.72-17.9.13-10.37-5.05-20.62-13.4-26.75-5.68-4.17-13.25-5.57-18.05-10.94-4.44-4.95-5.88-11.74-7.97-17.86-3.01-8.82-10.98-21-22.05-16.82-9.37,3.54-11.07,15.81-10.11,24.42.34,3.08,1.01,6.11,2,9.05,1.14,3.39,3.07,6.51,4.02,9.95,1.01,3.64,1.77,7.94,1.21,11.7-.51,3.4-1.7,6.66-2.19,10.07-1.8,12.53,3.12,25.03,10.46,35.02,4.88,6.65,8.51,12.15,8.71,20.68.15,6.62-.83,13.31.53,19.86,2.67,12.91,13.55,21.7,25.72,25.29.33.1.67.04.95-.13,23.11,3.94,46.82-13.32,48.6-37.1Z"/>
              <path class="cls-8" d="m207.89,191.44c.36-10.47-4.11-21.09-12.85-27.18-5.2-3.63-13.95-4.7-16.29-11.36-2.02-5.74.64-12.03.72-17.9.13-10.37-5.05-20.62-13.4-26.75-5.68-4.17-13.25-5.57-18.05-10.94-4.44-4.95-5.88-11.74-7.97-17.86-3.01-8.82-10.98-21-22.05-16.82-9.37,3.54-11.07,15.81-10.11,24.42.34,3.08,1.01,6.11,2,9.05,1.14,3.39,3.07,6.51,4.02,9.95,1.01,3.64,1.77,7.94,1.21,11.7-.51,3.4-1.7,6.66-2.19,10.07-1.8,12.53,3.12,25.03,10.46,35.02,4.88,6.65,8.51,12.15,8.71,20.68.15,6.62-.83,13.31.53,19.86,2.67,12.91,13.55,21.7,25.72,25.29.33.1.67.04.95-.13,23.11,3.94,46.82-13.32,48.6-37.1Z"/>
              <path class="cls-3" d="m186.48,239.92c-5.09-12.47-10.17-24.95-15.23-37.44,0-.01.02-.03.02-.04,4.39-11.41,7.1-23.28,8.16-35.46.14-1.59-2.34-1.6-2.48-.01-.96,11.01-3.36,21.73-7.09,32.11-4.29-10.58-8.56-21.16-12.83-31.75.07-.1.13-.2.18-.32,4.47-11.8,7.41-24.02,8.87-36.55.18-1.58-2.3-1.59-2.48-.01-1.34,11.48-4.02,22.68-7.93,33.53-4-9.92-7.98-19.85-11.96-29.78,2.68-8.46,4.66-17.07,5.95-25.85.23-1.56-2.16-2.25-2.39-.67-1.14,7.75-2.82,15.36-5.03,22.86-3.96-9.89-7.91-19.78-11.85-29.68.1-.12.19-.26.25-.44,1.89-5.48,3.53-11.03,4.92-16.66.38-1.55-2-2.23-2.39-.67-1.2,4.84-2.59,9.62-4.15,14.34-2.64-6.63-5.29-13.26-7.92-19.89-.58-1.46-2.99-.86-2.4.62,3.64,9.16,7.29,18.32,10.94,27.47-4.09-3.31-8.28-6.5-12.6-9.53-1.31-.92-2.58,1.21-1.28,2.12,5.43,3.82,10.68,7.87,15.76,12.13,3.22,8.06,6.44,16.12,9.67,24.17.02.09.06.18.1.25,1.81,4.5,3.61,9.01,5.42,13.51-9.72-4.93-18.81-10.89-27.19-17.89-1.22-1.02-2.95.76-1.72,1.79,9.28,7.76,19.41,14.31,30.3,19.57,4.61,11.48,9.24,22.95,13.88,34.42-7.78-3.73-15.56-7.46-23.34-11.19-1.43-.68-2.72,1.43-1.28,2.12,8.67,4.16,17.33,8.31,26,12.47,6.96,17.19,13.93,34.38,20.94,51.55.6,1.48,2.76.25,2.16-1.21Z"/>
            </g>
            <g>
              <path class="cls-25" d="m198.03,231.02c-2.88-11.75-11.16-22.14-22.77-26.17-6.91-2.4-16.96-.86-21.66-7.53-4.04-5.74-3.05-13.56-4.8-20.1-3.1-11.56-12.07-21.32-23.25-25.53-7.61-2.86-16.46-2.05-23.48-6.5-6.48-4.11-10.2-11.2-14.44-17.35-6.11-8.85-18.76-19.89-29.76-11.79-9.3,6.86-7.35,21.03-3.59,30.29,1.34,3.31,3.03,6.48,5.05,9.43,2.33,3.41,5.44,6.27,7.58,9.79,2.26,3.73,4.45,8.27,5,12.62.5,3.93.19,7.93.72,11.87,1.92,14.48,11.3,26.82,22.58,35.63,7.5,5.86,13.26,10.84,16.14,20.25,2.24,7.31,3.25,15.04,6.81,21.9,7.01,13.51,21.84,19.86,36.48,20.04.4,0,.76-.17,1.02-.44,26.9-2.85,47.85-29.44,42.38-56.42Z"/>
              <path class="cls-4" d="m187.73,289.4c-9-11.54-17.98-23.1-26.95-34.66,0-.02,0-.03.01-.05,1.3-14.05.6-28.08-2.02-41.94-.34-1.81-3.1-1.04-2.76.76,2.37,12.53,3.07,25.19,2.17,37.88-8.07-10.41-16.13-20.83-24.18-31.26.05-.13.09-.26.1-.42,1.27-14.51.72-29-1.58-43.37-.29-1.81-3.05-1.04-2.76.76,2.1,13.17,2.63,26.45,1.69,39.73-7.54-9.77-15.07-19.55-22.6-29.33.33-10.23-.16-20.42-1.48-30.58-.23-1.8-3.1-1.82-2.86,0,1.16,8.96,1.68,17.95,1.56,26.97-7.49-9.75-14.98-19.5-22.45-29.26.08-.16.13-.35.14-.57.39-6.68.47-13.35.26-20.04-.06-1.84-2.92-1.85-2.86,0,.18,5.75.13,11.49-.13,17.23-5.01-6.54-10.02-13.07-15.02-19.62-1.1-1.44-3.59-.02-2.47,1.44,6.9,9.04,13.83,18.07,20.75,27.09-5.58-2.4-11.23-4.63-16.98-6.65-1.74-.61-2.49,2.15-.76,2.76,7.23,2.54,14.32,5.4,21.3,8.55,6.09,7.95,12.2,15.89,18.3,23.82.05.09.12.18.19.25,3.41,4.44,6.83,8.88,10.25,13.31-12.34-2.44-24.3-6.21-35.8-11.36-1.67-.75-3.03,1.77-1.35,2.52,12.74,5.71,26.03,9.82,39.78,12.26,8.72,11.31,17.45,22.6,26.19,33.89-9.81-1.71-19.62-3.42-29.43-5.13-1.8-.31-2.57,2.44-.76,2.76,10.93,1.91,21.85,3.81,32.78,5.72,12.02,15.52,24.07,31.03,36.14,46.52h3.59Z"/>
            </g>
          </g>
          <g>
            <path class="cls-24" d="m330.89,122.82c0,9.99-8.1,18.09-18.09,18.09,9.99,0,18.09,8.1,18.09,18.09,0-9.99,8.1-18.09,18.09-18.09-9.99,0-18.09-8.1-18.09-18.09Z"/>
            <path class="cls-24" d="m308.37,122.82c0,4.22-3.42,7.63-7.63,7.63,4.22,0,7.63,3.42,7.63,7.63,0-4.22,3.42-7.63,7.63-7.63-4.22,0-7.63-3.42-7.63-7.63Z"/>
          </g>
          <g>
            <g>
              <rect class="cls-12" x="196.32" y="171.45" width="15.93" height="30.24"/>
              <rect class="cls-12" x="240.18" y="171.45" width="15.93" height="30.24"/>
            </g>
            <g class="cls-11">
              <rect class="cls-28" x="196.32" y="171.45" width="15.93" height="30.24"/>
              <rect class="cls-30" x="240.18" y="171.45" width="15.93" height="30.24"/>
            </g>
            <path class="cls-12" d="m256.11,191.27h-59.79l-49.9,56.28c-1.41,1.59-2.19,3.64-2.19,5.76v28.82c0,4.79,3.89,8.68,8.68,8.68h146.59c4.79,0,8.68-3.89,8.68-8.68v-28.82c0-2.12-.78-4.17-2.19-5.76l-49.9-56.28Z"/>
            <path class="cls-9" d="m256.11,191.27h-59.79l-49.9,56.28c-1.41,1.59-2.19,3.64-2.19,5.76v28.82c0,4.79,3.89,8.68,8.68,8.68h146.59c4.79,0,8.68-3.89,8.68-8.68v-28.82c0-2.12-.78-4.17-2.19-5.76l-49.9-56.28Z"/>
            <g>
              <path class="cls-12" d="m270.17,152.78h-116.53c-7.67,0-13.89,6.22-13.89,13.89v23.44h42.29v-13.89h88.13v13.89h42.29v-23.44c0-7.67-6.22-13.89-13.89-13.89h-28.4Z"/>
              <rect class="cls-12" x="136" y="180.13" width="49.47" height="15.63" rx="1.09" ry="1.09"/>
              <rect class="cls-12" x="266.96" y="180.13" width="49.47" height="15.63" rx="1.09" ry="1.09"/>
              <rect class="cls-10" x="136" y="180.13" width="49.47" height="15.63" rx="1.09" ry="1.09"/>
              <rect class="cls-10" x="266.96" y="180.13" width="49.47" height="15.63" rx="1.09" ry="1.09"/>
            </g>
            <g>
              <path class="cls-1" d="m206.9,229.18c-11.02,10.67-11.31,28.26-.64,39.28s28.26,11.31,39.28.64,11.31-28.26.64-39.28-28.26-11.31-39.28-.64Zm29.44,30.41c-5.77,5.59-14.98,5.44-20.57-.34-5.59-5.77-5.44-14.98.33-20.57s14.98-5.44,20.57.34c5.59,5.77,5.44,14.98-.34,20.57Z"/>
              <path class="cls-18" d="m206.9,227.44c-11.02,10.67-11.31,28.26-.64,39.28,10.67,11.02,28.26,11.31,39.28.64,11.02-10.67,11.31-28.26.64-39.28-10.67-11.02-28.26-11.31-39.28-.64Zm29.44,30.41c-5.77,5.59-14.98,5.44-20.57-.34-5.59-5.77-5.44-14.98.33-20.57s14.98-5.44,20.57.34c5.59,5.77,5.44,14.98-.34,20.57Z"/>
              <g>
                <path class="cls-12" d="m237.49,265.64c-1.62-1.67-1.58-4.35.1-5.97s4.35-1.58,5.97.1c1.62,1.67,1.58,4.35-.1,5.97-1.67,1.62-4.35,1.58-5.97-.1Z"/>
                <path class="cls-12" d="m222.77,268.56c-.14-2.33,1.64-4.32,3.96-4.46,2.33-.14,4.32,1.64,4.46,3.96.14,2.33-1.64,4.32-3.96,4.46-2.33.14-4.32-1.64-4.46-3.96Z"/>
                <path class="cls-12" d="m209.88,261.16c1.41-1.85,4.06-2.21,5.91-.8,1.85,1.41,2.21,4.06.8,5.91-1.41,1.85-4.06,2.21-5.91.8-1.85-1.41-2.21-4.06-.8-5.91Z"/>
                <path class="cls-12" d="m204.49,247.16c2.28-.48,4.52.97,5,3.25.48,2.28-.97,4.52-3.25,5-2.28.48-4.52-.97-5-3.25-.48-2.28.97-4.52,3.25-5Z"/>
                <path class="cls-12" d="m209.54,233.03c2.04,1.12,2.79,3.68,1.67,5.73-1.12,2.04-3.68,2.79-5.73,1.67s-2.79-3.68-1.67-5.73c1.12-2.04,3.68-2.79,5.73-1.67Z"/>
                <path class="cls-12" d="m222.58,225.62c.82,2.18-.29,4.61-2.47,5.43-2.18.82-4.61-.29-5.43-2.47-.82-2.18.29-4.61,2.47-5.43,2.18-.82,4.61.29,5.43,2.47Z"/>
                <path class="cls-12" d="m237.3,228.49c-.8,2.19-3.23,3.31-5.41,2.51-2.19-.8-3.31-3.23-2.51-5.41.8-2.19,3.23-3.31,5.41-2.51,2.19.8,3.31,3.23,2.51,5.41Z"/>
                <path class="cls-12" d="m246.32,240c-2.03,1.14-4.6.41-5.74-1.63-1.14-2.03-.41-4.6,1.63-5.74,2.03-1.14,4.6-.41,5.74,1.63,1.14,2.03.41,4.6-1.63,5.74Z"/>
                <path class="cls-12" d="m246.23,253.54c-2.28-.47-3.76-2.69-3.29-4.98.47-2.28,2.69-3.76,4.98-3.29s3.76,2.69,3.29,4.98c-.47,2.28-2.69,3.76-4.98,3.29Z"/>
              </g>
              <g>
                <path class="cls-12" d="m250.37,261.13l-11.07-7.36,12.5,4.48s-.88,1.96-1.43,2.88Z"/>
                <path class="cls-10" d="m250.37,261.13l-11.07-7.36,12.5,4.48s-.88,1.96-1.43,2.88Z"/>
              </g>
            </g>
          </g>
          <g>
            <polygon class="cls-18" points="62.38 246.05 98.35 213.2 134.31 246.05 134.31 276.07 62.38 276.07 62.38 246.05"/>
            <polygon class="cls-5" points="62.38 246.05 98.35 213.2 134.31 246.05 134.31 276.07 62.38 276.07 62.38 246.05"/>
            <g>
              <polygon class="cls-18" points="63.73 196.03 119.69 196.03 131.48 207.82 131.48 275.58 63.73 275.58 63.73 196.03"/>
              <polygon class="cls-27" points="63.73 196.03 119.69 196.03 131.48 207.82 131.48 275.58 63.73 275.58 63.73 196.03"/>
              <polygon class="cls-18" points="119.69 207.82 131.48 207.82 119.69 196.03 119.69 207.82"/>
              <g class="cls-11">
                <path class="cls-14" d="m112.85,231.62c0,5.71-2.61,8.96-6.53,8.96-2.17,0-3.7-.96-4.37-2.77-1.12,1.78-2.93,2.77-5.45,2.77-4.11,0-7.36-3.25-7.36-8.06s3.22-8.03,7.36-8.03c2.1,0,3.76.73,4.91,2.1v-1.88h4.33v10.33c0,1.53.67,2.04,1.53,2.04,1.47,0,2.36-1.69,2.36-5.39,0-6.47-4.78-10.93-11.86-10.93s-11.86,4.84-11.86,11.51,4.65,11.6,11.73,11.6c2.01,0,4.27-.41,6.28-1.4l1.02,2.93c-1.94.99-4.78,1.53-7.3,1.53-9.21,0-15.3-6.25-15.3-14.66s6.15-14.53,15.43-14.53,15.08,5.9,15.08,13.9Zm-11.38.89c0-2.77-1.69-4.33-3.98-4.33s-3.95,1.63-3.95,4.33,1.63,4.4,3.95,4.4,3.98-1.59,3.98-4.4Z"/>
              </g>
            </g>
            <polygon class="cls-2" points="134.31 289.04 62.38 289.04 62.38 246.05 98.35 266.66 134.31 246.05 134.31 289.04"/>
            <polygon class="cls-18" points="134.31 290.81 62.38 290.81 62.38 246.05 98.35 268.43 134.31 246.05 134.31 290.81"/>
            <g>
              <g class="cls-7">
                <path class="cls-14" d="m131.07,288.7s-1.54-1.04-3.75-2.72c-1.11-.84-2.38-1.84-3.72-2.93-.67-.55-1.37-1.11-2.06-1.7-.69-.59-1.4-1.18-2.1-1.78-.7-.61-1.39-1.22-2.07-1.81-.69-.59-1.34-1.21-1.99-1.78-1.28-1.16-2.46-2.27-3.46-3.24-2-1.93-3.25-3.3-3.25-3.3,0,0,1.55,1.04,3.75,2.72,1.11.84,2.38,1.84,3.72,2.93.67.55,1.37,1.11,2.06,1.7.69.59,1.4,1.18,2.1,1.78.7.61,1.39,1.22,2.07,1.81.69.59,1.34,1.21,1.99,1.78,1.28,1.16,2.46,2.27,3.46,3.24,2,1.93,3.25,3.3,3.25,3.3Z"/>
              </g>
              <g class="cls-7">
                <path class="cls-14" d="m65.62,288.7s1.26-1.37,3.25-3.3c.99-.97,2.17-2.08,3.46-3.24.65-.58,1.3-1.19,1.99-1.78.68-.6,1.38-1.21,2.07-1.81.7-.6,1.41-1.19,2.1-1.78.69-.59,1.39-1.15,2.06-1.7,1.34-1.09,2.61-2.09,3.72-2.93,2.2-1.69,3.75-2.72,3.75-2.72,0,0-1.26,1.37-3.25,3.3-.99.97-2.17,2.08-3.46,3.24-.65.58-1.3,1.19-1.99,1.78-.68.6-1.38,1.21-2.07,1.81-.71.6-1.41,1.19-2.1,1.78-.69.59-1.39,1.15-2.06,1.7-1.34,1.09-2.61,2.09-3.72,2.93-2.2,1.69-3.75,2.72-3.75,2.72Z"/>
              </g>
            </g>
          </g>
          <g>
            <path class="cls-18" d="m289.01,49.6c-24.82-16.32-92.63-18.39-104.45,18.83-11.82,37.23,0,52.99,10.51,56.5,7.51,2.5,29.82,5.97,53.24,5.78,2.28,5.53.08,13.07.08,13.07,5.69-2.5,9-9.39,10.51-13.41,1.66-.1,3.31-.22,4.95-.36,12.22-1.35,34.25-6.84,40.6-22.59,7.11-17.63,6.23-43.56-15.43-57.81Z"/>
            <g>
              <circle class="cls-2" cx="272.68" cy="87.98" r="7.74" transform="translate(17.65 218.58) rotate(-45)"/>
              <circle class="cls-2" cx="244.03" cy="87.98" r="7.74" transform="translate(9.26 198.32) rotate(-45)"/>
              <circle class="cls-2" cx="215.38" cy="87.98" r="7.74" transform="translate(.87 178.06) rotate(-45)"/>
            </g>
          </g>
          <g>
            <circle class="cls-18" cx="376.46" cy="173" r="20.22"/>
            <g class="cls-11">
              <rect class="cls-14" x="373.11" y="167.44" width="6.71" height="18.69"/>
              <rect class="cls-14" x="373.11" y="159.87" width="6.71" height="5.73"/>
            </g>
          </g>
          <g>
            <g>
              <path class="cls-22" d="m332.61,262.77c-1.74-4.76-6.02-8.07-10.19-10.94-4.17-2.88-8.62-5.77-11.07-10.21-1.59-2.89-2.2-6.32-1.71-9.58.07-.46.17-.94.48-1.3.23-.27.56-.44.89-.58,3.48-1.49,7.68-.26,10.56,2.2,2.88,2.46,4.66,5.95,6.1,9.46,2.97,7.26,4.76,14.99,5.28,22.82"/>
              <path class="cls-29" d="m333.28,262.59c-4.52-11.09-20.11-13.69-22.36-25.78-.36-1.93-.46-4.86,1.72-5.99,1.85-.96,5.72.47,7.3,1.5,3.46,2.25,5.43,6.22,7.02,9.89,3.11,7.17,4.23,14.72,5.09,22.42.12,1.11,1.84,1.17,1.78,0-.42-9.08-2.98-18.86-7.14-26.95-2.7-5.25-9.46-11.79-15.99-8.61-5.39,2.62-1.27,12.34,1.33,15.63,5.7,7.2,15.99,9.68,19.97,18.43.33.72,1.59.2,1.29-.54h0Z"/>
            </g>
            <g>
              <path class="cls-21" d="m340.83,268.81c1.22-11.79,4.66-23.36,10.1-33.89,2.64-5.11,6.43-10.47,12.12-11.34,1.39-.21,2.89-.11,4.07.65,1.57,1.02,2.27,3.03,2.15,4.9-.11,1.87-.91,3.62-1.77,5.28-3.03,5.82-7.11,11.08-11.98,15.47-2.69,2.42-5.62,4.59-8.03,7.28-3.37,3.76-5.62,8.52-6.41,13.51"/>
              <path class="cls-13" d="m341.56,268.81c1.23-9.77,3.99-19.55,7.96-28.56,1.49-3.38,3.05-6.89,5.26-9.89,1.81-2.46,4.13-4.72,7.12-5.64,3.63-1.43,5.86.45,6.67,5.64-.35,1.07-.79,2.09-1.33,3.07-3.95,7.96-9.88,13.66-16.56,19.26-5.61,4.71-9.4,10.39-10.47,17.73-.16,1.12,1.47,1.64,1.74.48,1.49-6.51,4.61-11.64,9.5-16.17,4.02-3.72,8.08-7.3,11.41-11.68,3-3.93,11.99-16.66,3.36-20.03-7.47-2.92-13.81,6.91-16.56,12.17-5.5,10.52-8.38,21.85-9.56,33.61-.09.94,1.34.91,1.45,0h0Z"/>
            </g>
            <path class="cls-31" d="m338.98,178.33c-4.71-.19-6.93,6.5-8.15,10.06-2.65,7.77-2.94,16.22-2.65,24.35.67,18.68,3.18,37.43,7.31,55.63.13.55.51.77.92.76.02,1.18.07,2.35.15,3.52.06.91,1.41,1.19,1.65.22,4.54-18.35,6.63-38.23,8.25-57.07.56-6.52,4.82-36.98-7.49-37.48Z"/>
            <path class="cls-32" d="m338.98,178.33c-4.71-.19-6.93,6.5-8.15,10.06-2.65,7.77-2.94,16.22-2.65,24.35.67,18.68,3.18,37.43,7.31,55.63.13.55.51.77.92.76.02,1.18.07,2.35.15,3.52.06.91,1.41,1.19,1.65.22,4.54-18.35,6.63-38.23,8.25-57.07.56-6.52,4.82-36.98-7.49-37.48Z"/>
            <g class="cls-6">
              <path class="cls-16" d="m334.51,264.97c-1.98-12.18-8.52-23.58-18.72-30.72-.49-.34-1.12.45-.65.84,9.63,7.96,16.09,17.74,18.51,30.12.11.57.95.32.86-.24h0Z"/>
            </g>
            <g class="cls-6">
              <path class="cls-15" d="m340.33,269.04c5.05-13.83,13.21-25.81,21.82-37.6.26-.35-.31-.79-.61-.47-10.06,10.93-16.72,24.17-22.43,37.73-.31.73.93,1.1,1.21.33h0Z"/>
            </g>
            <g class="cls-6">
              <path class="cls-23" d="m338.69,268.26c.13-12.92-.17-25.84-.26-38.75-.09-12.79,1.01-26,0-38.74-.04-.57-.98-.8-1.08-.15-1.85,12.18-.89,25.22-.75,37.52.15,13.37.35,26.74.56,40.11.02.98,1.51.98,1.52,0h0Z"/>
            </g>
            <g>
              <polygon class="cls-12" points="353.61 290.81 325.26 290.81 323.81 265.34 355.06 265.34 353.61 290.81"/>
              <rect class="cls-12" x="321.2" y="261.33" width="36.46" height="8.78"/>
              <rect class="cls-1" x="321.2" y="261.33" width="36.46" height="8.78"/>
            </g>
          </g>
        </g>
      </g>
    </g>
  </g>
</svg>