<?xml version="1.0" encoding="UTF-8"?>
<svg id="Layer_1" data-name="Layer 1" xmlns="http://www.w3.org/2000/svg" viewBox="0 0 300 300">
  <defs>
    <style>
      .cls-1 {
        fill: #39c;
      }
    </style>
  </defs>
  <path class="cls-1" d="m89.61,8.88c1.47-.46,2.96.64,2.96,2.17,0,.29,0,.57,0,.85.11,82.59.21,165.18.4,247.78,0,2.57-.72,3.66-3.21,4.48-27.17,8.97-54.29,18.09-81.42,27.17,0,0-.02,0-.03,0-1.47.49-2.98-.62-2.98-2.16,0-.2,0-.4,0-.6-.09-82.69-.16-165.39-.33-248.08,0-2.65.85-3.65,3.29-4.46,26.87-8.89,53.69-17.91,80.53-26.89.26-.09.52-.17.79-.26Z"/>
  <path class="cls-1" d="m193.9,288.89c0,1.54-1.5,2.63-2.96,2.17-1.32-.42-2.56-.81-3.8-1.22-25.98-8.62-51.94-17.28-77.94-25.83-2.12-.7-2.83-1.59-2.83-3.84-.07-82.99-.21-165.99-.33-248.98,0-.06,0-.13,0-.19,0-1.53,1.48-2.62,2.95-2.18.18.05.35.11.52.16,26.63,8.84,53.25,17.72,79.9,26.5,2.61.86,4.37,3.29,4.37,6.03,0,82.45.07,164.89.13,247.34,0,.01,0,.02,0,.03Z"/>
  <path class="cls-1" d="m210.35,291.13c-1.46.44-2.92-.67-2.92-2.19,0-.28,0-.55,0-.82-.09-82.4-.15-164.81-.35-247.21,0-3.14.92-4.41,3.85-5.38,26.89-8.85,53.72-17.86,80.58-26.82.06-.02.13-.04.19-.06,1.47-.48,2.98.62,2.98,2.17,0,.18,0,.36,0,.54.08,82.61.14,165.22.32,247.83,0,2.94-.95,3.99-3.62,4.88-26.78,8.85-53.51,17.86-80.26,26.81-.25.08-.51.16-.77.24Z"/>
</svg>