<?xml version="1.0" encoding="UTF-8"?>
<svg id="Layer_1" data-name="Layer 1" xmlns="http://www.w3.org/2000/svg" viewBox="0 0 300 300">
  <defs>
    <style>
      .cls-1 {
        fill: #39c;
      }
    </style>
  </defs>
  <path class="cls-1" d="m235.49,295H64.46c-.44-.16-.86-.38-1.31-.47-13.72-2.69-23.37-12.09-25.39-25.76-.79-5.33-.19-10.9.09-16.35,1.12-22.04,2.35-44.08,3.58-66.11,1.61-28.91,3.27-57.82,4.85-86.73.43-7.9,4.24-11.7,12.11-11.71,12.17-.01,24.34,0,36.52,0,1,0,2,0,3.24,0,0-1.61,0-2.83,0-4.04.07-10.38-.28-20.77.31-31.12C100.14,22.62,129.69.05,159.24,5.94c25.15,5.01,42.13,25.43,42.4,51.07.1,9.15.02,18.3.02,27.45,0,1.01,0,2.03,0,3.4,1.3,0,2.3,0,3.31,0,12.45,0,24.91-.04,37.36.02,6.52.03,10.84,3.98,11.2,10.3,1.39,24.48,2.71,48.97,4.08,73.45,1.04,18.55,2.12,37.1,3.16,55.65.67,11.96,1.57,23.91,1.85,35.88.29,12.49-5.39,21.98-16.29,28.02-3.3,1.83-7.21,2.57-10.84,3.81Zm-54.88-207.23c0-11.96.72-23.68-.18-35.27-1.17-15.07-14.78-26.45-30.23-26.64-15.23-.18-29.23,10.94-30.66,25.81-1.13,11.77-.49,23.71-.62,35.58,0,.15.21.3.37.52h61.31Z"/>
</svg>